<?xml version="1.0" encoding="utf-8"?><svg xmlns="http://www.w3.org/2000/svg" xmlns:xlink="http://www.w3.org/1999/xlink"><symbol viewBox="0 0 28 27" id="man" xmlns="http://www.w3.org/2000/svg"><g stroke="#201009" stroke-width=".5" fill="none" fill-rule="evenodd" stroke-linecap="round" stroke-linejoin="round"><path d="M27 10.8c.4 1.1.6 2.3.6 3.6C27.6 20.8 22.4 26 16 26 9.6 26 4.4 20.8 4.4 14.4c0-1.2.2-2.4.5-3.5m4 3c1.4-1.5 2.7-1.5 4.1 0m6 0c1.4-1.5 2.7-1.5 4.1 0M11 20.5c3.4 2.2 6.8 2.2 10.1 0M20.2 2.4c-2.4-.6-5.4-.4-8.3.1-5 .8-7 4.4-7 8.3 7.7-1 15.7-2.7 22.1 0 0-3.8-1.8-7.1-6.8-8.4zm-3.9-.3c-3.7 0-7 4.7-7.3 8.3m7.6-8.3c3.5 0 6.6 4.4 7.1 7.8"/><path d="M16.8 9.5c.1-1.4-.1-5.1-.5-7.4h.3"/><ellipse cx="16.6" cy="1.5" rx="1.2" ry="1"/><path d="M4.9 10.9L.6 12.8"/></g></symbol></svg>